<?xml version="1.0" standalone="no"?>
<!DOCTYPE svg PUBLIC "-//W3C//DTD SVG 20010904//EN"
 "http://www.w3.org/TR/2001/REC-SVG-20010904/DTD/svg10.dtd">
<svg version="1.0" xmlns="http://www.w3.org/2000/svg"
 width="550.000000pt" height="814.000000pt" viewBox="0 0 550.000000 814.000000"
 preserveAspectRatio="xMidYMid meet">

<g transform="translate(0.000000,814.000000) scale(0.100000,-0.100000)"
fill="#000000" stroke="none">
<path d="M2370 8120 c-606 -55 -1158 -309 -1588 -732 -406 -399 -661 -908
-743 -1479 -28 -198 -30 -533 -5 -744 62 -510 232 -912 564 -1329 109 -139
433 -467 601 -609 258 -220 527 -417 1151 -847 179 -123 359 -249 400 -279
450 -329 684 -525 1019 -855 304 -301 532 -554 904 -1009 98 -119 182 -217
186 -217 7 0 635 2971 629 2975 -2 1 -176 125 -388 275 -212 150 -386 273
-388 275 -1 1 147 323 328 716 182 393 333 723 336 734 4 17 -12 32 -88 84
-379 261 -699 484 -702 489 -2 4 86 203 196 442 109 239 199 444 200 455 0 27
-90 226 -154 339 -123 219 -258 397 -427 566 -140 140 -235 217 -395 324 -342
228 -746 376 -1131 415 -152 15 -399 21 -505 11z"/>
</g>
</svg>
